<?xml version="1.0" encoding="utf-8"?>
<!-- Generator: Adobe Illustrator 16.0.0, SVG Export Plug-In . SVG Version: 6.00 Build 0)  -->
<!DOCTYPE svg PUBLIC "-//W3C//DTD SVG 1.1//EN" "http://www.w3.org/Graphics/SVG/1.1/DTD/svg11.dtd">
<svg version="1.1"
	 id="svg2" inkscape:version="0.48.4 r9939" sodipodi:docname="ANVIL-Logo-2015.svg" xmlns:inkscape="http://www.inkscape.org/namespaces/inkscape" xmlns:sodipodi="http://sodipodi.sourceforge.net/DTD/sodipodi-0.dtd" xmlns:svg="http://www.w3.org/2000/svg" xmlns:rdf="http://www.w3.org/1999/02/22-rdf-syntax-ns#" xmlns:cc="http://creativecommons.org/ns#" xmlns:dc="http://purl.org/dc/elements/1.1/"
	 xmlns="http://www.w3.org/2000/svg" xmlns:xlink="http://www.w3.org/1999/xlink" x="0px" y="0px" width="827.114px"
	 height="232.496px" viewBox="0 0 827.114 232.496" enable-background="new 0 0 827.114 232.496" xml:space="preserve">
<sodipodi:namedview  inkscape:current-layer="g14" inkscape:window-maximized="1" inkscape:window-y="24" inkscape:window-x="0" inkscape:window-height="876" inkscape:window-width="1440" inkscape:pageshadow="2" inkscape:pageopacity="0" showgrid="false" inkscape:zoom="0.62933333" bordercolor="#666666" objecttolerance="10" gridtolerance="10" guidetolerance="10" inkscape:cx="444.16582" inkscape:cy="355.39652" id="namedview4" borderopacity="1" pagecolor="#ffffff">
	</sodipodi:namedview>
<g>
	<g id="g20" transform="translate(251.1792,330.8225)">
		<path id="path22" inkscape:connector-curvature="0" fill="#2AB1EB" d="M-18.69-214.573c0,64.2-52.046,116.247-116.247,116.247
			c-64.197,0-116.244-52.047-116.244-116.247c0-64.202,52.046-116.249,116.244-116.249C-70.737-330.822-18.69-278.775-18.69-214.573
			"/>
	</g>
	<g id="g28" transform="translate(85.0205,354.6828)">
		<path id="path30" inkscape:connector-curvature="0" fill="#FFFFFF" d="M-60.231-268.259H2.126v-4.94h9.888v-2.283h108.364
			c0,0,1.24,10.672-5.702,11.022c-6.161,0.312-34.255,5.212-45.25,14.07c-11.089,8.937-13.808,26.208,0,36.123
			c12.661,9.09,15.63,8.986,15.63,8.986l-0.042,11.166H61.06c0,0-5.046-12.326-24.335-12.166
			c-19.286,0.162-25.47,12.166-25.47,12.166h-21.676v-11.408c0,0,23.602-9.865,25.094-22.432
			c1.49-12.565-12.778-13.577-16.354-14.069C-5.308-242.524-38.615-240.672-60.231-268.259"/>
	</g>
	<g id="g32" transform="translate(509.249,292.9785)">
		<path id="path34" fill="#FFFFFF" d="M45.828-129.424c0,5.322-3.039,7.98-9.105,7.98c-6.197,0-9.291-2.658-9.291-7.98v-65.252
			c0-8.059-8.123-12.094-24.361-12.094h-45.361c-16.615,0-24.912,4.035-24.912,12.094v65.252c0,5.322-2.98,7.98-8.922,7.98
			c-6.09,0-9.123-2.658-9.123-7.98v-65.252c0-17.977,15.996-26.969,47.965-26.969h34.961c32.105,0,48.148,8.992,48.148,26.969
			v65.252H45.828z"/>
	</g>
	<g id="g36" transform="translate(583.7842,289.8555)">
		<path id="path38" fill="#FFFFFF" d="M64.462-122.397c-2.232,2.719-4.59,4.076-7.062,4.076c-2.35,0-4.459-1.227-6.32-3.705
			l-67.299-86.073c-1.121-1.379-1.684-2.99-1.684-4.834c0-2.115,0.945-3.982,2.805-5.59c1.846-1.599,3.838-2.408,5.938-2.408
			c1.234,0,2.449,0.244,3.629,0.74c1.174,0.494,2.125,1.297,2.883,2.406l60.42,79.028l60.25-79.385
			c1.23-1.61,3.092-2.414,5.57-2.414c1.107,0,2.287,0.15,3.531,0.464c1.236,0.301,2.352,0.866,3.348,1.668
			c0.979,0.808,1.824,1.678,2.51,2.603c0.666,0.932,1.023,1.899,1.023,2.889c0,1.482-0.688,3.094-2.055,4.834L64.462-122.397z"/>
	</g>
	<g id="g40" transform="translate(668.709,292.9785)">
		<path id="path42" fill="#FFFFFF" d="M85.694-129.424c0,5.322-2.908,7.98-8.736,7.98c-5.83,0-8.73-2.658-8.73-7.98v-78.831
			c0-5.084,2.791-7.615,8.361-7.615c6.066,0,9.105,2.531,9.105,7.615V-129.424L85.694-129.424z M88.862-235.945
			c0,6.311-4.215,9.465-12.656,9.465c-7.926,0-11.889-3.154-11.889-9.465c0-6.336,3.963-9.486,11.889-9.486
			C84.647-245.431,88.862-242.281,88.862-235.945"/>
	</g>
	<g id="g44" transform="translate(721.9453,282.8086)">
		<path id="path46" fill="#FFFFFF" d="M99.002-106.542c-4.307-0.291-5.451-0.457-11.238-1.385
			c-20.387-3.277-30.578-12.316-30.578-27.131v-92.502c0-5.143,2.98-7.721,8.92-7.721c5.953,0,8.928,2.578,8.928,7.721v92.502
			c0,5.914,4.199,9.893,12.602,11.963c4.521,1.102,7.156,1.584,10.471,2.072c0,0,8.355,1.094,6.893,8.498
			C104.235-108.653,103.27-106.52,99.002-106.542"/>
	</g>
	<g id="g114" transform="translate(375,331)">
		<path id="path116" fill="#FFFFFF" d="M12.264-214.974v20.381c0,12.77-7.727,19.619-22.354,19.619h-59.671
			c-15.137,0-22.975-4.689-22.975-13.109v-13.568c0-8.934,7.347-15.821,21.486-15.821h34.763h24.062h2.188h0.988
			c4.342,0,9.012-2.486,9.012-7.314c0-5.093-4.67-7.686-9.012-7.686h-0.988h-3.125h-25.625h-28.185
			c-29.13,0-43.063,12.047-43.063,31.374v12.834c0,18.594,14.265,28.293,43.999,28.293h52.984c28.131,0,41.768-10.082,41.768-29.41
			v-40.524c0-19.845-13.637-30.064-41.768-30.064h-60.466c-4.343,0-9.013,2.486-9.013,7.314c0,5.094,4.67,7.686,9.013,7.686h63.251
			c13.504,0,21.715,5.156,22.119,15c0,0,0.371,4.496,0.516,8.007C12.311-218.453,12.264-214.974,12.264-214.974"/>
	</g>
</g>
</svg>
