<?xml version="1.0" encoding="utf-8"?>
<!-- Generator: Adobe Illustrator 16.0.0, SVG Export Plug-In . SVG Version: 6.00 Build 0)  -->
<!DOCTYPE svg PUBLIC "-//W3C//DTD SVG 1.1//EN" "http://www.w3.org/Graphics/SVG/1.1/DTD/svg11.dtd">
<svg version="1.1"
	 id="svg2" xmlns:inkscape="http://www.inkscape.org/namespaces/inkscape" xmlns:sodipodi="http://sodipodi.sourceforge.net/DTD/sodipodi-0.dtd" xmlns:svg="http://www.w3.org/2000/svg" xmlns:rdf="http://www.w3.org/1999/02/22-rdf-syntax-ns#" xmlns:cc="http://creativecommons.org/ns#" xmlns:dc="http://purl.org/dc/elements/1.1/" inkscape:version="0.48.4 r9939" sodipodi:docname="ANVIL-Logo-2015.svg"
	 xmlns="http://www.w3.org/2000/svg" xmlns:xlink="http://www.w3.org/1999/xlink" x="0px" y="0px" width="242px" height="243px"
	 viewBox="-5 -5 242 243" enable-background="new -5 -5 242 243" xml:space="preserve">
<sodipodi:namedview  showgrid="false" inkscape:zoom="0.62933333" bordercolor="#666666" objecttolerance="10" gridtolerance="10" guidetolerance="10" inkscape:cx="444.16582" inkscape:cy="355.39652" id="namedview4" borderopacity="1" pagecolor="#ffffff" inkscape:pageshadow="2" inkscape:current-layer="g14" inkscape:window-height="876" inkscape:window-width="1440" inkscape:window-maximized="1" inkscape:pageopacity="0" inkscape:window-x="0" inkscape:window-y="24">
	</sodipodi:namedview>
<g id="g20" transform="translate(251.1792,330.8225)">
	<path id="path22" inkscape:connector-curvature="0" fill="#2AB1EB" d="M-18.69-214.573c0,64.199-52.047,116.247-116.247,116.247
		c-64.197,0-116.244-52.048-116.244-116.247c0-64.202,52.046-116.249,116.244-116.249C-70.737-330.822-18.69-278.775-18.69-214.573"
		/>
</g>
<g id="g28" transform="translate(85.0205,354.6828)">
	<path id="path30" inkscape:connector-curvature="0" fill="#FFFFFF" d="M-60.231-268.259H2.125v-4.939h9.888v-2.283h108.364
		c0,0,1.24,10.672-5.702,11.021c-6.16,0.312-34.254,5.213-45.25,14.07c-11.089,8.938-13.808,26.209,0,36.123
		c12.661,9.09,15.63,8.986,15.63,8.986l-0.042,11.166H61.06c0,0-5.046-12.326-24.335-12.166
		c-19.286,0.162-25.47,12.166-25.47,12.166h-21.676v-11.408c0,0,23.602-9.865,25.094-22.436
		c1.49-12.562-12.778-13.576-16.354-14.068C-5.309-242.523-38.615-240.672-60.231-268.259"/>
</g>
</svg>
